<svg width="602" height="545" viewBox="0 0 602 545" fill="none" xmlns="http://www.w3.org/2000/svg">
<path d="M378.302 16.6348L420.208 56.522L462.326 281.373H67.2539L378.302 16.6348Z" fill="#FFCF2D"/>
<path d="M420.568 56.2088L378.535 16.1963L385.565 8.99153C395.92 -1.61721 414.575 -0.405969 425.333 9.7851C436.09 19.9971 437.974 38.3953 427.62 49.004L420.568 56.2088Z" fill="white"/>
<path d="M420.59 57.0858L377.646 16.217L385.12 8.55284C390.16 3.37377 397.339 0.679821 405.343 0.951304C413.009 1.22279 420.462 4.27176 425.799 9.32553C431.135 14.3793 434.502 21.6258 435.052 29.1856C435.624 37.0586 433.147 44.2425 428.107 49.4216L420.59 57.0858ZM379.424 16.1753L420.547 55.3107L427.154 48.5653C431.961 43.6578 434.29 36.808 433.761 29.29C433.231 22.0226 430.013 15.0893 424.888 10.2444C419.764 5.39946 412.628 2.47579 405.28 2.22519C397.656 1.95371 390.817 4.52236 386.031 9.42994L379.424 16.1753Z" fill="#FFCF2D"/>
<path d="M427.599 49.6301C427.43 49.6301 427.281 49.5675 427.154 49.4631L385.1 9.45056C384.845 9.19996 384.845 8.82406 385.078 8.57346C385.332 8.32286 385.735 8.32286 385.968 8.55257L428.022 48.5651C428.277 48.8157 428.277 49.1916 428.044 49.4422C427.938 49.5675 427.768 49.6301 427.599 49.6301Z" fill="#FFCF2D"/>
<path d="M508.828 280.287C508.743 280.287 508.659 280.267 508.574 280.225C508.256 280.079 508.108 279.703 508.256 279.389L567.23 149.662L451.929 11.2473V11.2264C449.748 8.30271 446.551 6.42321 442.909 5.90112C439.266 5.37904 435.645 6.31879 432.723 8.53243L428.022 12.0826C427.747 12.2914 427.345 12.2497 427.133 11.9573C426.921 11.6858 426.963 11.289 427.26 11.0802L431.961 7.53002C435.158 5.12844 439.118 4.10516 443.099 4.66901C447.08 5.23286 450.574 7.27942 452.946 10.4746L568.713 149.474L568.543 149.829L509.4 279.912C509.294 280.141 509.061 280.287 508.828 280.287Z" fill="#3FB1B5"/>
<path d="M566.087 156.658C569.665 156.658 572.566 153.797 572.566 150.267C572.566 146.738 569.665 143.877 566.087 143.877C562.508 143.877 559.607 146.738 559.607 150.267C559.607 153.797 562.508 156.658 566.087 156.658Z" fill="white"/>
<path d="M566.087 157.285C562.169 157.285 558.972 154.131 558.972 150.268C558.972 146.404 562.169 143.251 566.087 143.251C570.004 143.251 573.202 146.404 573.202 150.268C573.202 154.131 570.004 157.285 566.087 157.285ZM566.087 144.504C562.868 144.504 560.242 147.094 560.242 150.268C560.242 153.442 562.868 156.032 566.087 156.032C569.305 156.032 571.931 153.442 571.931 150.268C571.931 147.094 569.305 144.504 566.087 144.504Z" fill="#FFCF2D"/>
<path d="M492.396 265.125H523.969C533.053 265.125 540.401 272.392 540.401 281.33V281.79H475.942V281.33C475.964 272.392 483.311 265.125 492.396 265.125Z" fill="white"/>
<path d="M541.036 282.417H475.307V281.331C475.328 272.059 482.994 264.499 492.396 264.499H523.969C533.371 264.499 541.036 272.059 541.036 281.331V282.417ZM476.578 281.164H539.766C539.681 272.643 532.629 265.752 523.969 265.752H492.396C483.756 265.752 476.684 272.643 476.578 281.164Z" fill="#FFCF2D"/>
<path d="M339.444 234.364H139.568C132.051 234.364 125.974 228.37 125.974 220.957V83.0848C125.974 75.6713 132.051 69.6777 139.568 69.6777H339.444C346.962 69.6777 353.039 75.6713 353.039 83.0848V220.936C353.06 228.349 346.962 234.364 339.444 234.364Z" fill="white"/>
<path d="M339.444 234.991H139.568C131.712 234.991 125.338 228.705 125.338 220.957V83.0854C125.338 75.3376 131.712 69.0518 139.568 69.0518H339.444C347.301 69.0518 353.674 75.3376 353.674 83.0854V220.936C353.696 224.674 352.213 228.204 349.524 230.856C346.835 233.529 343.256 234.991 339.444 234.991ZM139.568 70.3048C132.432 70.3048 126.609 76.0477 126.609 83.0854V220.957C126.609 227.995 132.432 233.738 139.568 233.738H339.444C342.917 233.738 346.178 232.401 348.635 229.979C351.07 227.556 352.425 224.34 352.404 220.936V83.0854C352.404 76.0477 346.581 70.3048 339.444 70.3048H139.568Z" fill="#3FB1B5"/>
<path d="M339.572 221.541H141.623C138.679 221.541 136.308 219.181 136.308 216.299V84.3999C136.308 81.4971 138.7 79.1582 141.623 79.1582H339.572C342.515 79.1582 344.887 81.518 344.887 84.3999V216.278C344.908 219.181 342.515 221.541 339.572 221.541Z" fill="#66B0F0"/>
<path d="M339.572 222.168H141.623C138.34 222.168 135.672 219.537 135.672 216.3V84.4004C135.672 81.1635 138.34 78.5322 141.623 78.5322H339.572C342.854 78.5322 345.522 81.1635 345.522 84.4004V216.279C345.543 217.845 344.929 219.328 343.807 220.435C342.663 221.541 341.181 222.168 339.572 222.168ZM141.623 79.7852C139.039 79.7852 136.943 81.8527 136.943 84.4004V216.3C136.943 218.847 139.039 220.915 141.623 220.915H339.572C340.821 220.915 342.007 220.435 342.896 219.557C343.786 218.68 344.252 217.532 344.252 216.3V84.4004C344.252 81.8527 342.155 79.7852 339.572 79.7852H141.623Z" fill="#66B0F0"/>
<path d="M148.716 92.1071H145.582C144.206 92.1071 143.083 91.0003 143.083 89.6429V86.5521C143.083 85.1947 144.206 84.0879 145.582 84.0879H148.716C150.093 84.0879 151.215 85.1947 151.215 86.5521V89.6429C151.194 91.0212 150.093 92.1071 148.716 92.1071ZM145.582 85.3409C144.905 85.3409 144.354 85.8839 144.354 86.5521V89.6429C144.354 90.3111 144.905 90.8541 145.582 90.8541H148.716C149.394 90.8541 149.923 90.3111 149.944 89.622V86.5521C149.944 85.8839 149.394 85.3409 148.716 85.3409H145.582Z" fill="white"/>
<path d="M162.967 92.1071H159.833C158.457 92.1071 157.334 91.0003 157.334 89.6429V86.5521C157.334 85.1947 158.457 84.0879 159.833 84.0879H162.967C164.344 84.0879 165.466 85.1947 165.466 86.5521V89.6429C165.466 91.0003 164.344 92.1071 162.967 92.1071ZM159.833 85.3409C159.156 85.3409 158.605 85.8839 158.605 86.5521V89.6429C158.605 90.3111 159.156 90.8541 159.833 90.8541H162.967C163.645 90.8541 164.195 90.3111 164.195 89.6429V86.5521C164.195 85.8839 163.645 85.3409 162.967 85.3409H159.833Z" fill="white"/>
<path d="M177.219 92.1071H174.085C172.708 92.1071 171.586 91.0003 171.586 89.6429V86.5521C171.586 85.1947 172.708 84.0879 174.085 84.0879H177.219C178.595 84.0879 179.717 85.1947 179.717 86.5521V89.6429C179.717 91.0003 178.595 92.1071 177.219 92.1071ZM174.085 85.3409C173.407 85.3409 172.856 85.8839 172.856 86.5521V89.6429C172.856 90.3111 173.407 90.8541 174.085 90.8541H177.219C177.917 90.8541 178.447 90.332 178.447 89.6429V86.5521C178.447 85.8839 177.896 85.3409 177.219 85.3409H174.085Z" fill="white"/>
<path d="M281.699 281.374H204.112L219.337 234.365H266.453L281.699 281.374Z" fill="white"/>
<path d="M282.567 282H203.243L218.871 233.738H266.918L282.567 282ZM204.98 280.747H280.83L265.986 234.991H219.802L204.98 280.747Z" fill="#3FB1B5"/>
<path d="M210.21 262.558L219.337 234.365H266.452L210.21 262.558Z" fill="#3FB1B5"/>
<path d="M328.052 123.036H290.338C286.463 123.036 283.308 119.924 283.308 116.102V92.0866C283.308 88.2649 286.463 85.1533 290.338 85.1533H328.052C331.927 85.1533 335.082 88.2649 335.082 92.0866V116.102C335.082 119.924 331.927 123.036 328.052 123.036ZM290.338 86.4063C287.162 86.4063 284.579 88.9541 284.579 92.0866V116.102C284.579 119.235 287.162 121.783 290.338 121.783H328.052C331.228 121.783 333.812 119.235 333.812 116.102V92.0866C333.812 88.9541 331.228 86.4063 328.052 86.4063H290.338Z" fill="white"/>
<path d="M323.499 94.9688H294.722C294.362 94.9688 294.086 94.6973 294.086 94.3423C294.086 93.9873 294.362 93.7158 294.722 93.7158H323.499C323.859 93.7158 324.134 93.9873 324.134 94.3423C324.134 94.6973 323.859 94.9688 323.499 94.9688Z" fill="white"/>
<path d="M323.499 101.442H294.722C294.362 101.442 294.086 101.171 294.086 100.816C294.086 100.461 294.362 100.189 294.722 100.189H323.499C323.859 100.189 324.134 100.461 324.134 100.816C324.134 101.171 323.859 101.442 323.499 101.442Z" fill="white"/>
<path d="M323.499 107.916H294.722C294.362 107.916 294.086 107.645 294.086 107.29C294.086 106.935 294.362 106.663 294.722 106.663H323.499C323.859 106.663 324.134 106.935 324.134 107.29C324.134 107.645 323.859 107.916 323.499 107.916Z" fill="white"/>
<path d="M323.499 114.39H294.722C294.362 114.39 294.086 114.118 294.086 113.763C294.086 113.408 294.362 113.137 294.722 113.137H323.499C323.859 113.137 324.134 113.408 324.134 113.763C324.134 114.118 323.859 114.39 323.499 114.39Z" fill="white"/>
<path d="M338.47 221.541H188.569L179.781 233.967C169.849 248.001 148.864 248.209 138.658 234.364L85.126 161.752C87.3706 164.509 97.6407 161.439 107.424 155.091C117.355 148.638 123.771 140.514 121.76 137.507L158.88 184.16L170.252 164.363C173.365 159.121 178.531 155.362 184.545 153.984L223.233 145.902H256.584L293.345 153.9C299.74 155.341 305.161 159.455 308.232 165.156L338.47 221.541Z" fill="white"/>
<path d="M159.071 245.244C150.707 245.244 143.083 241.423 138.149 234.719L84.6177 162.108L85.6341 161.356C87.434 163.549 96.9842 161.126 107.085 154.569C111.786 151.52 115.873 147.991 118.583 144.607C121.04 141.559 122.035 139.032 121.23 137.841L122.268 137.11L158.796 183.033L169.701 164.05C172.899 158.662 178.256 154.778 184.397 153.378L223.169 145.276H256.648L256.711 145.297L293.472 153.295C300.037 154.778 305.627 158.996 308.782 164.864L339.508 222.168H188.886L180.289 234.322C175.44 241.172 167.795 245.161 159.304 245.244C159.24 245.244 159.156 245.244 159.071 245.244ZM87.074 163.319L139.187 233.988C143.93 240.42 151.257 244.075 159.325 243.991C167.393 243.908 174.656 240.128 179.272 233.612L188.251 220.915H337.433L307.681 165.449C304.695 159.894 299.422 155.905 293.218 154.506L256.521 146.529H223.296L184.672 154.59C178.87 155.926 173.809 159.602 170.802 164.676L158.965 185.288L122.67 139.679C122.374 141.245 121.336 143.208 119.557 145.401C116.762 148.868 112.569 152.501 107.763 155.613C101.05 159.957 92.982 163.382 88.1752 163.382C87.794 163.382 87.4128 163.361 87.074 163.319Z" fill="#3FB1B5"/>
<path d="M297.327 221.312C297.094 221.312 296.882 221.187 296.755 220.978L286.104 200.241C285.955 199.928 286.061 199.552 286.379 199.406C286.696 199.26 287.078 199.364 287.226 199.677L297.877 220.415C298.025 220.728 297.919 221.104 297.602 221.25C297.517 221.292 297.432 221.312 297.327 221.312Z" fill="#3FB1B5"/>
<path d="M187.722 223.254C187.616 223.254 187.531 223.234 187.425 223.192C187.108 223.046 186.981 222.649 187.15 222.356L197.695 201.828C197.844 201.515 198.246 201.39 198.542 201.557C198.86 201.703 198.987 202.1 198.818 202.392L188.272 222.92C188.166 223.129 187.955 223.254 187.722 223.254Z" fill="#3FB1B5"/>
<path d="M168.6 197.15C168.409 197.15 168.219 197.067 168.092 196.9L143.93 166.431C143.719 166.16 143.761 165.763 144.036 165.554C144.311 165.345 144.714 165.387 144.926 165.658L169.087 196.127C169.299 196.399 169.256 196.795 168.981 197.004C168.875 197.109 168.727 197.15 168.6 197.15Z" fill="#3FB1B5"/>
<path d="M252.879 167.496L243.583 156.323C243.35 156.052 243.392 155.655 243.668 155.446C243.943 155.216 244.345 155.258 244.557 155.53L253.048 165.7L272.466 149.453C272.742 149.223 273.144 149.265 273.356 149.515C273.589 149.787 273.546 150.184 273.292 150.392L252.879 167.496Z" fill="#3FB1B5"/>
<path d="M228.739 167.893L206.356 150.413C206.081 150.205 206.038 149.808 206.25 149.536C206.462 149.265 206.864 149.223 207.139 149.432L228.506 166.118L236.743 155.739C236.955 155.467 237.357 155.425 237.632 155.634C237.908 155.843 237.95 156.24 237.738 156.511L228.739 167.893Z" fill="#3FB1B5"/>
<path d="M95.3114 173.029C93.2997 173.029 92.2409 172.424 91.7116 171.755C91.4998 171.484 91.5422 171.087 91.8174 170.878C92.0927 170.669 92.495 170.711 92.7068 170.983C93.5962 172.09 96.4972 172.027 100.457 170.857C104.671 169.604 109.753 167.14 114.369 164.112C119.092 161.021 123.2 157.45 125.931 154.025C128.409 150.935 129.404 148.387 128.599 147.176C128.409 146.883 128.494 146.507 128.79 146.299C129.086 146.111 129.468 146.194 129.679 146.487C130.823 148.22 129.849 151.164 126.948 154.798C124.131 158.307 119.917 161.982 115.089 165.135C110.304 168.268 105.243 170.732 100.838 172.048C98.4454 172.758 96.6455 173.029 95.3114 173.029Z" fill="#3FB1B5"/>
<path d="M122.48 152.752C120.807 152.752 119.452 151.415 119.452 149.766C119.452 148.116 120.807 146.779 122.48 146.779C124.153 146.779 125.508 148.116 125.508 149.766C125.508 151.415 124.153 152.752 122.48 152.752ZM122.48 148.032C121.506 148.032 120.722 148.805 120.722 149.766C120.722 150.726 121.506 151.499 122.48 151.499C123.454 151.499 124.237 150.726 124.237 149.766C124.237 148.805 123.454 148.032 122.48 148.032Z" fill="#3FB1B5"/>
<path d="M240.639 167.579C238.966 167.579 237.611 166.243 237.611 164.593C237.611 162.943 238.966 161.606 240.639 161.606C242.312 161.606 243.667 162.943 243.667 164.593C243.667 166.243 242.312 167.579 240.639 167.579ZM240.639 162.859C239.665 162.859 238.881 163.632 238.881 164.593C238.881 165.553 239.665 166.326 240.639 166.326C241.613 166.326 242.396 165.553 242.396 164.593C242.396 163.632 241.613 162.859 240.639 162.859Z" fill="#3FB1B5"/>
<path d="M240.639 186.583C238.966 186.583 237.611 185.246 237.611 183.597C237.611 181.947 238.966 180.61 240.639 180.61C242.312 180.61 243.667 181.947 243.667 183.597C243.667 185.246 242.312 186.583 240.639 186.583ZM240.639 181.863C239.665 181.863 238.881 182.636 238.881 183.597C238.881 184.557 239.665 185.33 240.639 185.33C241.613 185.33 242.396 184.557 242.396 183.597C242.396 182.636 241.613 181.863 240.639 181.863Z" fill="#3FB1B5"/>
<path d="M179.019 234.97L188.569 221.542V234.97H179.019Z" fill="#3FB1B5"/>
<path d="M107.191 154.464C97.4075 160.813 87.1373 163.883 84.8927 161.126C84.8504 161.084 84.8292 161.043 84.7868 160.98C84.321 160.291 84.3633 159.351 84.7868 158.202C86.2479 154.423 92.283 148.575 99.9485 143.605C106.047 139.637 112.061 136.881 116.233 136.024C118.647 135.544 120.446 135.69 121.315 136.609L121.526 136.86C123.517 139.867 117.122 148.011 107.191 154.464Z" fill="#FE5244"/>
<path d="M107.191 154.465C101.622 158.077 95.883 160.646 91.5632 161.648L72.2299 134.751C69.5406 130.992 70.43 125.792 74.2628 123.139L91.6691 111.069L81.8013 94.5084C80.3613 92.1068 81.1872 88.9952 83.6435 87.596C84.4482 87.1366 85.3164 86.9277 86.1846 86.9277C87.8575 86.9277 89.5092 87.7422 90.4832 89.2458L121.336 136.567L121.548 136.902C123.517 139.867 117.122 148.012 107.191 154.465Z" fill="#E57281"/>
<path d="M97.1322 135.064C96.8569 135.064 96.5816 135.043 96.3063 134.98C95.2476 134.771 94.337 134.145 93.7653 133.268L83.5798 118.232C83.3893 117.939 83.4739 117.563 83.7492 117.355C84.0457 117.167 84.4269 117.25 84.6386 117.522L94.824 132.558C95.2264 133.163 95.8405 133.581 96.5604 133.727C97.2804 133.873 98.0216 133.727 98.6356 133.33L101.028 131.785C102.299 130.97 102.659 129.3 101.854 128.047L91.076 111.57C90.8854 111.277 90.9701 110.902 91.2665 110.714C91.563 110.526 91.9442 110.609 92.1348 110.902L102.913 127.379C104.099 129.216 103.548 131.66 101.706 132.829L99.3132 134.374C98.678 134.834 97.9157 135.064 97.1322 135.064Z" fill="#9A3B82"/>
<path d="M89.234 140.054C87.9211 140.054 86.6294 139.428 85.8459 138.279C85.6553 137.987 85.74 137.611 86.0365 137.402C86.3329 137.214 86.7141 137.298 86.9258 137.59C87.7517 138.822 89.4457 139.177 90.7163 138.384L92.8974 137.026C93.5115 136.629 93.9561 136.024 94.1044 135.293C94.2526 134.562 94.1256 133.831 93.7232 133.226C93.5326 132.933 93.6173 132.557 93.9138 132.348C94.2102 132.16 94.5914 132.244 94.8032 132.536C95.3961 133.434 95.6078 134.499 95.3749 135.564C95.142 136.609 94.5067 137.507 93.5961 138.091L91.4151 139.449C90.7375 139.846 89.9751 140.054 89.234 140.054Z" fill="#9A3B82"/>
<path d="M81.4839 144.733C80.2133 144.733 78.964 144.148 78.1805 143.041L72.3996 135.001C72.1878 134.709 72.2725 134.333 72.5478 134.124C72.8231 133.915 73.2254 133.999 73.4372 134.27L79.2181 142.311C80.0863 143.501 81.7168 143.814 82.945 143.041L82.9873 143.021L84.999 141.914C85.6343 141.517 86.0578 140.911 86.2272 140.201C86.3966 139.47 86.2484 138.74 85.846 138.113L75.8723 123.495C75.6818 123.202 75.7453 122.826 76.0418 122.618C76.3382 122.43 76.7194 122.492 76.9311 122.785L86.9048 137.403C87.5189 138.322 87.7095 139.408 87.4766 140.452C87.2436 141.496 86.6084 142.394 85.6766 142.958L85.6554 142.979L83.6438 144.086C82.945 144.545 82.2038 144.733 81.4839 144.733Z" fill="#9A3B82"/>
<path d="M114.136 125.541L109.075 117.794C107.402 115.225 103.908 114.515 101.346 116.227L88.7891 124.623C88.7891 124.623 92.4313 131.075 101.283 125.959L104.247 130.616C98.191 134.396 96.4546 142.353 100.393 148.263L114.136 125.541Z" fill="#E57281"/>
<path d="M100.393 148.888C100.181 148.888 99.9908 148.784 99.8637 148.596C97.8732 145.589 97.1745 141.997 97.9579 138.489C98.6779 135.189 100.605 132.349 103.379 130.428L101.071 126.794C98.0215 128.444 95.2475 128.924 92.7911 128.277C89.6783 127.441 88.2807 125.019 88.2172 124.935L87.9419 124.434L100.308 115.914C101.706 114.995 103.358 114.661 104.988 114.995C106.619 115.329 108.016 116.269 108.927 117.668L113.988 125.416C114.178 125.708 114.094 126.084 113.797 126.272C113.501 126.46 113.12 126.376 112.929 126.084L107.868 118.336C107.148 117.229 106.047 116.478 104.734 116.227C103.442 115.955 102.108 116.227 101.028 116.958L89.6571 124.789C90.1653 125.436 91.3088 126.606 93.1299 127.086C95.3745 127.692 98.0003 127.128 100.944 125.436L101.473 125.123L105.094 130.824L104.565 131.158C101.791 132.892 99.8637 135.607 99.1649 138.781C98.4662 141.955 99.0802 145.213 100.901 147.928C101.092 148.22 101.007 148.596 100.711 148.805C100.626 148.847 100.52 148.888 100.393 148.888Z" fill="#9A3B82"/>
<path d="M107.191 154.465C101.622 158.078 95.883 160.646 91.5632 161.649L86.7563 154.966C89.4456 151.499 94.2525 147.323 99.9487 143.626C106.047 139.659 112.061 136.902 116.233 136.046C118.647 135.565 120.447 135.712 121.315 136.631L121.527 136.881C121.548 136.923 121.569 136.944 121.59 136.986C121.611 137.006 121.611 137.027 121.632 137.069C121.654 137.111 121.675 137.132 121.696 137.173C123.136 140.369 116.804 148.2 107.191 154.465Z" fill="#9A3B82"/>
<path d="M256.563 127.525V145.882C256.563 151.207 249.067 155.509 239.856 155.509C230.623 155.509 223.148 151.207 223.148 145.882V127.525H256.563Z" fill="#E57281"/>
<path d="M228.039 152.69C225.011 150.957 223.126 148.534 223.126 145.882V127.525H256.563V132.621C256.563 137.904 253.302 142.645 248.347 144.629L228.039 152.69Z" fill="#9A3B82"/>
<path d="M265.88 126.439V126.752C265.88 129.927 263.275 132.495 260.057 132.495H256.224C254.932 137.633 250.231 141.454 244.598 141.454H235.112C229.5 141.454 224.778 137.653 223.508 132.495H219.675C216.456 132.495 213.852 129.927 213.852 126.752V126.439C213.852 123.265 216.456 120.696 219.675 120.696H223.148V116.164C223.148 111.319 226.769 107.31 231.491 106.642C232.528 108.354 235.662 112.447 242.057 112.217C245.064 112.113 247.86 111.549 250.168 110.881C252.942 110.087 255.716 111.758 256.414 114.368C256.52 114.953 256.584 115.538 256.584 116.144V120.675H260.057C263.254 120.675 265.88 123.265 265.88 126.439Z" fill="#E57281"/>
<path d="M259.231 120.675H256.562V115.642C256.562 115.204 256.499 114.765 256.393 114.368C255.694 111.758 252.92 110.087 250.146 110.881C247.838 111.549 245.064 112.113 242.036 112.217C235.641 112.447 232.507 108.354 231.469 106.642C226.747 107.31 223.126 111.319 223.126 116.164V120.696H219.802C219.802 120.696 215.99 107.101 218.849 103.259C221.665 99.4786 225.053 101.128 225.053 101.128C225.053 101.128 223.02 89.8096 234.37 90.0185C245.699 90.2273 260.438 103.196 261.518 105.577C263.212 109.231 259.231 120.675 259.231 120.675Z" fill="#9A3B82"/>
<path d="M257.855 128.026C257.558 128.026 257.325 127.796 257.325 127.504C257.325 124.998 259.4 122.951 261.941 122.951C262.238 122.951 262.471 123.181 262.471 123.473C262.471 123.766 262.238 123.995 261.941 123.995C259.972 123.995 258.384 125.562 258.384 127.504C258.384 127.796 258.151 128.026 257.855 128.026Z" fill="#9A3B82"/>
<path d="M221.898 128.026C221.602 128.026 221.369 127.796 221.369 127.504C221.369 125.562 219.78 123.995 217.811 123.995C217.515 123.995 217.282 123.766 217.282 123.473C217.282 123.181 217.515 122.951 217.811 122.951C220.352 122.951 222.427 124.998 222.427 127.504C222.427 127.796 222.194 128.026 221.898 128.026Z" fill="#9A3B82"/>
<path d="M251.226 116.686C251.121 116.686 251.015 116.644 250.909 116.582C250.803 116.498 248.071 114.598 244.577 116.039C244.302 116.143 244.006 116.018 243.878 115.746C243.773 115.475 243.9 115.183 244.175 115.057C248.241 113.407 251.396 115.621 251.523 115.725C251.756 115.893 251.819 116.227 251.629 116.456C251.544 116.603 251.396 116.686 251.226 116.686Z" fill="#9A3B82"/>
<path d="M228.272 116.687C228.103 116.687 227.955 116.603 227.849 116.478C227.679 116.248 227.722 115.914 227.955 115.747C228.082 115.643 231.258 113.429 235.303 115.079C235.578 115.183 235.705 115.496 235.599 115.768C235.493 116.039 235.175 116.165 234.9 116.06C231.385 114.619 228.611 116.582 228.569 116.603C228.484 116.645 228.378 116.687 228.272 116.687Z" fill="#9A3B82"/>
<path d="M241.189 134.27C240.363 134.27 239.41 134.103 238.33 133.706C238.055 133.602 237.907 133.31 238.013 133.038C238.119 132.767 238.415 132.621 238.69 132.725C243.137 134.354 244.598 131.472 244.662 131.347C244.789 131.096 245.107 130.971 245.361 131.096C245.615 131.221 245.742 131.535 245.615 131.785C245.594 131.827 244.387 134.27 241.189 134.27Z" fill="#9A3B82"/>
<path d="M239.686 130.344C239.199 130.344 238.67 130.344 238.225 130.302C237.928 130.282 237.717 130.031 237.738 129.739C237.759 129.446 238.013 129.237 238.31 129.258C239.559 129.342 241.486 129.258 241.507 129.258C241.804 129.237 242.036 129.467 242.058 129.759C242.079 130.052 241.846 130.282 241.549 130.302C241.507 130.302 240.639 130.344 239.686 130.344Z" fill="#9A3B82"/>
<path d="M247.817 124.873C248.402 124.873 248.876 124.087 248.876 123.118C248.876 122.15 248.402 121.364 247.817 121.364C247.232 121.364 246.758 122.15 246.758 123.118C246.758 124.087 247.232 124.873 247.817 124.873Z" fill="#9A3B82"/>
<path d="M232.634 124.873C233.219 124.873 233.693 124.087 233.693 123.118C233.693 122.15 233.219 121.364 232.634 121.364C232.049 121.364 231.575 122.15 231.575 123.118C231.575 124.087 232.049 124.873 232.634 124.873Z" fill="#9A3B82"/>
<path d="M235.154 129.551H228.484C226.917 129.551 225.625 128.277 225.625 126.731V120.153C225.625 118.608 226.917 117.334 228.484 117.334H235.154C236.721 117.334 238.013 118.608 238.013 120.153V126.731C238.034 127.462 237.737 128.172 237.208 128.695C236.657 129.258 235.937 129.551 235.154 129.551ZM228.484 118.378C227.488 118.378 226.684 119.172 226.684 120.153V126.731C226.684 127.713 227.488 128.507 228.484 128.507H235.154C235.641 128.507 236.107 128.319 236.446 127.964C236.785 127.629 236.954 127.191 236.954 126.731V120.153C236.954 119.172 236.149 118.378 235.154 118.378H228.484Z" fill="white"/>
<path d="M251.48 129.551H244.81C243.243 129.551 241.951 128.277 241.951 126.731V120.153C241.951 118.608 243.243 117.334 244.81 117.334H251.48C253.047 117.334 254.339 118.608 254.339 120.153V126.731C254.339 128.277 253.047 129.551 251.48 129.551ZM244.81 118.378C243.815 118.378 243.01 119.172 243.01 120.153V126.731C243.01 127.713 243.815 128.507 244.81 128.507H251.48C252.475 128.507 253.28 127.713 253.28 126.731V120.153C253.28 119.172 252.475 118.378 251.48 118.378H244.81Z" fill="white"/>
<path d="M242.481 121.678H237.504V122.722H242.481V121.678Z" fill="white"/>
<path d="M253.239 214.066H230.094C227.637 214.066 225.647 212.103 225.647 209.681V197.548C225.647 195.125 227.637 193.162 230.094 193.162H253.239C255.695 193.162 257.686 195.125 257.686 197.548V209.681C257.686 212.103 255.695 214.066 253.239 214.066ZM230.094 194.415C228.336 194.415 226.918 195.814 226.918 197.548V209.681C226.918 211.414 228.336 212.813 230.094 212.813H253.239C254.996 212.813 256.415 211.414 256.415 209.681V197.548C256.415 195.814 254.996 194.415 253.239 194.415H230.094Z" fill="#66B0F0"/>
<path d="M242.248 208.554H234.413C233.164 208.554 232.147 207.551 232.147 206.319V200.91C232.147 199.678 233.164 198.676 234.413 198.676H242.248C243.498 198.676 244.514 199.678 244.514 200.91V206.319C244.514 207.551 243.498 208.554 242.248 208.554Z" fill="#66B0F0"/>
<path d="M249.872 208.408L247.458 206.821C246.801 206.382 246.399 205.63 246.399 204.816V202.435C246.399 201.621 246.801 200.869 247.458 200.43L249.872 198.843C250.443 198.467 251.185 198.885 251.185 199.595V207.677C251.206 208.366 250.443 208.784 249.872 208.408Z" fill="#66B0F0"/>
<path d="M562.783 282.417H0.635267C0.275282 282.417 0 282.146 0 281.791C0 281.436 0.275282 281.164 0.635267 281.164H562.783C563.143 281.164 563.418 281.436 563.418 281.791C563.418 282.146 563.143 282.417 562.783 282.417Z" fill="#3FB1B5"/>
<path d="M181.623 285.444V543.27H166.864V494.194C166.864 489.621 163.094 485.904 158.457 485.904H52.8121C48.1746 485.904 44.4054 489.621 44.4054 494.194V543.27H29.646V285.444H181.623Z" fill="white"/>
<path d="M182.258 543.897H166.228V494.195C166.228 489.976 162.734 486.531 158.457 486.531H52.8121C48.5346 486.531 45.0407 489.976 45.0407 494.195V543.897H29.0107V284.818H182.258V543.897ZM167.499 542.644H180.988V286.071H30.2813V542.644H43.7701V494.195C43.7701 489.287 47.8358 485.278 52.8121 485.278H158.457C163.433 485.278 167.499 489.287 167.499 494.195V542.644Z" fill="#3FB1B5"/>
<path d="M182.068 285.444V353.858L29.646 477.634L29.6672 285.444H182.068Z" fill="#D0F0E4"/>
<path d="M158.901 360.312H52.3883C47.645 360.312 43.791 356.511 43.791 351.833V305.075C43.791 300.397 47.645 296.597 52.3883 296.597H158.901C163.645 296.597 167.499 300.397 167.499 305.075V351.833C167.499 356.511 163.645 360.312 158.901 360.312ZM52.3883 297.85C48.3438 297.85 45.0615 301.087 45.0615 305.075V351.833C45.0615 355.822 48.3438 359.059 52.3883 359.059H158.901C162.946 359.059 166.228 355.822 166.228 351.833V305.075C166.228 301.087 162.946 297.85 158.901 297.85H52.3883Z" fill="#3FB1B5"/>
<path d="M132.728 395.103H80.2978L78.1167 380.297H130.569L132.728 395.103Z" fill="#FFCF2D"/>
<path d="M160.702 371.756C154.158 371.756 148.864 376.977 148.864 383.43V395.103H104.248V383.43C104.248 376.977 109.541 371.756 116.085 371.756H160.702Z" fill="white"/>
<path d="M149.5 395.731H103.612V383.43C103.612 376.643 109.203 371.13 116.085 371.13H160.702V372.383C154.518 372.383 149.5 377.332 149.5 383.43V395.731ZM104.883 394.478H148.229V383.43C148.229 378.585 151.088 374.388 155.217 372.383H116.085C109.901 372.383 104.883 377.332 104.883 383.43V394.478Z" fill="#3FB1B5"/>
<path d="M171.819 380.297H127.202C125.826 375.369 121.231 371.756 115.789 371.756H160.405C165.848 371.756 170.422 375.369 171.819 380.297Z" fill="white"/>
<path d="M172.667 380.924H126.737L126.61 380.465C125.276 375.703 120.829 372.383 115.811 372.383V371.13H160.427C165.997 371.13 170.952 374.826 172.455 380.131L172.667 380.924ZM127.669 379.671H170.952C169.364 375.348 165.128 372.383 160.406 372.383H121.274C124.26 373.824 126.631 376.434 127.669 379.671Z" fill="#3FB1B5"/>
<path d="M158.901 458.192H52.3883C47.645 458.192 43.791 454.391 43.791 449.713V402.955C43.791 398.277 47.645 394.477 52.3883 394.477H158.901C163.645 394.477 167.499 398.277 167.499 402.955V449.713C167.499 454.391 163.645 458.192 158.901 458.192ZM52.3883 395.73C48.3438 395.73 45.0615 398.966 45.0615 402.955V449.713C45.0615 453.702 48.3438 456.939 52.3883 456.939H158.901C162.946 456.939 166.228 453.702 166.228 449.713V402.955C166.228 398.966 162.946 395.73 158.901 395.73H52.3883Z" fill="#3FB1B5"/>
<path d="M127.477 328.152C127.117 328.152 126.842 327.88 126.842 327.525C126.842 324.142 124.068 321.406 120.637 321.406H90.6737C87.2433 321.406 84.4693 324.142 84.4693 327.525C84.4693 327.88 84.194 328.152 83.834 328.152C83.474 328.152 83.1987 327.88 83.1987 327.525C83.1987 323.453 86.5445 320.153 90.6737 320.153H120.637C124.766 320.153 128.112 323.453 128.112 327.525C128.112 327.88 127.837 328.152 127.477 328.152Z" fill="#3FB1B5"/>
<path d="M127.477 426.032C127.117 426.032 126.842 425.76 126.842 425.405C126.842 422.022 124.068 419.286 120.637 419.286H90.6737C87.2433 419.286 84.4693 422.022 84.4693 425.405C84.4693 425.76 84.194 426.032 83.834 426.032C83.474 426.032 83.1987 425.76 83.1987 425.405C83.1987 421.333 86.5445 418.033 90.6737 418.033H120.637C124.766 418.033 128.112 421.333 128.112 425.405C128.112 425.76 127.837 426.032 127.477 426.032Z" fill="#3FB1B5"/>
<path d="M540.4 285.444H524.667V543.834H540.4V285.444Z" fill="white"/>
<path d="M541.035 544.461H524.031V284.818H541.035V544.461ZM525.302 543.208H539.765V286.071H525.302V543.208Z" fill="#3FB1B5"/>
<path d="M601.365 544.462H273.017C272.657 544.462 272.381 544.19 272.381 543.835C272.381 543.48 272.657 543.209 273.017 543.209H601.365C601.725 543.209 602 543.48 602 543.835C602 544.19 601.725 544.462 601.365 544.462Z" fill="#3FB1B5"/>
<path d="M74.3267 246.351H64.8189C64.8189 246.351 51.2454 190.572 39.3235 188.755C27.4017 186.938 26.7876 208.406 26.7876 208.406C26.7876 208.406 26.9994 175.766 56.7934 180.235C86.6086 184.704 74.3267 246.351 74.3267 246.351Z" fill="white"/>
<path d="M74.8564 246.978H64.3322L64.2051 246.498C64.1628 246.352 60.7535 232.402 55.9467 218.431C47.9846 195.313 42.4578 189.862 39.2391 189.382C37.0369 189.048 35.0887 189.549 33.4794 190.886C27.8679 195.48 27.4444 208.302 27.4444 208.428L26.1738 208.407C26.1738 208.24 26.2162 204.418 27.4655 199.531C28.6302 195 31.0866 188.672 36.2322 184.328C41.4626 179.922 48.4082 178.335 56.9207 179.629C62.4264 180.444 66.8944 183.242 70.219 187.899C75.5552 195.396 77.9904 207.53 77.4187 224.006C76.9952 236.223 75.0047 246.373 74.9835 246.477L74.8564 246.978ZM65.3274 245.725H73.8188C74.2212 243.532 75.7882 234.511 76.1481 223.944C76.5293 212.813 75.6188 197.673 69.1814 188.63C66.0686 184.245 61.8758 181.634 56.7301 180.882C48.6199 179.671 41.992 181.154 37.058 185.31C35.5758 186.563 34.3052 188.004 33.2464 189.528C35.0464 188.275 37.1216 187.837 39.4509 188.192C44.6389 188.985 50.6104 199.051 57.1748 218.097C61.4735 230.606 64.671 243.136 65.3274 245.725Z" fill="#3FB1B5"/>
<path d="M70.1546 246.143C69.8158 246.143 69.5193 245.872 69.5193 245.516C68.8205 203.938 59.8844 189.257 52.5153 184.287C46.925 180.507 42.0334 182.219 41.9911 182.24C41.6523 182.365 41.2923 182.198 41.1652 181.864C41.0382 181.53 41.2076 181.175 41.5464 181.05C41.7793 180.966 47.0944 179.107 53.2353 183.242C57.9786 186.458 61.8538 192.347 64.7336 200.784C68.4394 211.644 70.4722 226.68 70.7898 245.496C70.7898 245.851 70.5146 246.143 70.1546 246.143Z" fill="#3FB1B5"/>
<path d="M100.224 245.517H55.5649V281.373H100.224V245.517Z" fill="#FE5244"/>
<path d="M109.626 263.454C106.788 264.666 103.4 264.519 100.245 263.162C97.9157 262.16 95.7135 260.51 93.9348 258.254C91.4784 255.122 89.8267 250.841 89.8267 245.516C89.8267 232.61 79.4083 224.507 75.1309 241.59C74.8344 242.78 74.5591 244.075 74.3262 245.516V245.474V245.39C74.3262 245.349 74.3262 245.286 74.3474 245.223V245.14C74.4321 244.075 74.7497 240.921 75.7238 237.121C76.4437 234.301 77.5237 231.169 79.133 228.266C79.9377 226.825 80.8694 225.447 81.9706 224.215C84.8081 220.999 88.7044 218.743 94.0194 218.743C103.803 218.743 110.96 230.104 113.692 241.422C116.084 251.259 115.11 261.095 109.626 263.454Z" fill="white"/>
<path d="M105.454 264.896C103.654 264.896 101.77 264.499 99.9911 263.726C97.4712 262.641 95.2055 260.886 93.4267 258.631C90.6527 255.102 89.1916 250.549 89.1916 245.516C89.1916 239.627 86.5658 232.986 82.6484 232.527C79.8108 232.193 77.3121 235.555 75.7451 241.736C75.4275 243.031 75.1734 244.284 74.9405 245.621L73.6699 245.516V245.391C73.6699 245.349 73.6699 245.245 73.6911 245.14V245.078C73.7758 243.908 74.1146 240.776 75.0887 236.954C75.9569 233.571 77.1215 230.543 78.5615 227.953C79.472 226.345 80.4249 224.967 81.4837 223.797C84.8083 220.018 89.0222 218.117 94.0196 218.117C104.184 218.117 111.532 229.749 114.306 241.277C115.534 246.351 115.873 251.343 115.238 255.331C114.539 259.821 112.675 262.808 109.88 264.019C108.525 264.604 107.021 264.896 105.454 264.896ZM82.2672 231.253C82.4578 231.253 82.6272 231.274 82.7966 231.295C87.0317 231.796 90.4621 238.186 90.4621 245.537C90.4621 250.298 91.8385 254.58 94.4431 257.9C96.0948 259.988 98.1912 261.617 100.499 262.62C103.527 263.914 106.767 264.019 109.372 262.912C114.115 260.865 115.619 252.115 113.078 241.611C111.659 235.701 109.139 230.25 106.005 226.262C102.469 221.772 98.3394 219.412 94.0196 219.412C89.4245 219.412 85.5282 221.187 82.4578 224.675C81.4625 225.802 80.552 227.076 79.705 228.622C78.6462 230.543 77.7356 232.694 76.9945 235.074C77.3545 234.49 77.7145 233.968 78.0956 233.508C79.5991 231.691 81.1237 231.253 82.2672 231.253Z" fill="#3FB1B5"/>
<path d="M107.36 264.479C107.043 264.479 106.767 264.249 106.725 263.915C103.633 235.284 96.5819 226.429 91.2245 224.048C86.4388 221.918 82.3943 224.696 82.3519 224.717C82.0766 224.926 81.6743 224.842 81.4625 224.571C81.2508 224.299 81.3355 223.902 81.6108 223.693C81.8013 223.568 86.2906 220.477 91.7327 222.9C95.3325 224.508 98.4665 228.142 101.029 233.738C104.247 240.734 106.577 250.842 107.974 263.769C108.017 264.103 107.763 264.416 107.403 264.458C107.403 264.479 107.381 264.479 107.36 264.479Z" fill="#3FB1B5"/>
<path d="M26.1518 208.406C26.1518 211.852 25.7495 225.029 38.4972 225.635C51.2449 226.241 52.5154 207.258 52.5154 207.258C52.5154 207.258 46.2474 190.467 39.323 188.755C27.6129 185.852 26.1518 208.406 26.1518 208.406Z" fill="#3FB1B5"/>
<path d="M89.8267 245.517H74.3262C77.9048 223.401 89.8267 231.713 89.8267 245.517Z" fill="#3FB1B5"/>
<path opacity="0.4" d="M353.06 83.0858V220.937C353.06 228.35 346.962 234.344 339.466 234.344H179.484C169.447 247.981 148.758 248.043 138.637 234.344L138.615 234.323C134.592 234.052 131.035 232.026 128.748 229.04L132.432 225.907L226.452 145.882L315.982 69.6787H339.466C346.962 69.6787 353.06 75.6931 353.06 83.0858Z" fill="white"/>
<path opacity="0.4" d="M109.626 264.082C106.81 265.335 103.4 265.147 100.245 263.79V281.374H67.2749L93.9561 258.673L100.266 253.306L105.073 249.213L114.369 241.424C117.08 252.826 115.576 261.388 109.626 264.082Z" fill="white"/>
<path d="M390.392 356.866V473.103H363.16L345.817 425.343L320.979 356.866H390.392Z" fill="#A0505A"/>
<path d="M320.979 356.866H390.392V394.185L329.237 379.608L320.979 356.866Z" fill="#73325A"/>
<path d="M391.027 473.729H362.716L344.653 423.985L346.135 424.779C346.177 424.8 349.693 426.658 356.85 427.577C363.457 428.433 374.637 428.621 390.244 424.716L391.027 424.528V473.729ZM363.605 472.476H389.757V426.136C374.299 429.916 363.203 429.686 356.575 428.83C351.768 428.204 348.591 427.18 346.919 426.512L363.605 472.476Z" fill="white"/>
<path d="M359.984 437.184C357.93 437.184 356.257 435.534 356.257 433.508C356.257 431.483 357.93 429.833 359.984 429.833C362.038 429.833 363.711 431.483 363.711 433.508C363.711 435.534 362.038 437.184 359.984 437.184ZM359.984 431.086C358.628 431.086 357.527 432.172 357.527 433.508C357.527 434.845 358.628 435.931 359.984 435.931C361.339 435.931 362.44 434.845 362.44 433.508C362.44 432.172 361.339 431.086 359.984 431.086Z" fill="white"/>
<path d="M374.723 447.02C372.669 447.02 370.996 445.37 370.996 443.344C370.996 441.319 372.669 439.669 374.723 439.669C376.777 439.669 378.449 441.319 378.449 443.344C378.449 445.37 376.777 447.02 374.723 447.02ZM374.723 440.922C373.367 440.922 372.266 442.008 372.266 443.344C372.266 444.681 373.367 445.767 374.723 445.767C376.078 445.767 377.179 444.681 377.179 443.344C377.179 442.008 376.078 440.922 374.723 440.922Z" fill="white"/>
<path d="M385.691 436.098C383.637 436.098 381.964 434.448 381.964 432.423C381.964 430.397 383.637 428.747 385.691 428.747C387.745 428.747 389.418 430.397 389.418 432.423C389.418 434.448 387.745 436.098 385.691 436.098ZM385.691 430C384.336 430 383.234 431.086 383.234 432.423C383.234 433.759 384.336 434.845 385.691 434.845C387.046 434.845 388.147 433.759 388.147 432.423C388.147 431.086 387.046 430 385.691 430Z" fill="white"/>
<path d="M381.35 458.463C379.296 458.463 377.623 456.813 377.623 454.788C377.623 452.762 379.296 451.112 381.35 451.112C383.404 451.112 385.077 452.762 385.077 454.788C385.077 456.813 383.404 458.463 381.35 458.463ZM381.35 452.365C379.995 452.365 378.894 453.451 378.894 454.788C378.894 456.124 379.995 457.21 381.35 457.21C382.705 457.21 383.806 456.124 383.806 454.788C383.806 453.451 382.705 452.365 381.35 452.365Z" fill="white"/>
<path d="M363.076 452.909C361.022 452.909 359.349 451.259 359.349 449.233C359.349 447.207 361.022 445.558 363.076 445.558C365.13 445.558 366.803 447.207 366.803 449.233C366.803 451.259 365.13 452.909 363.076 452.909ZM363.076 446.811C361.721 446.811 360.62 447.897 360.62 449.233C360.62 450.57 361.721 451.656 363.076 451.656C364.431 451.656 365.532 450.57 365.532 449.233C365.532 447.897 364.431 446.811 363.076 446.811Z" fill="white"/>
<path d="M368.116 469.616C366.062 469.616 364.389 467.966 364.389 465.94C364.389 463.914 366.062 462.265 368.116 462.265C370.17 462.265 371.842 463.914 371.842 465.94C371.842 467.966 370.17 469.616 368.116 469.616ZM368.116 463.518C366.76 463.518 365.659 464.604 365.659 465.94C365.659 467.277 366.76 468.363 368.116 468.363C369.471 468.363 370.572 467.277 370.572 465.94C370.572 464.604 369.471 463.518 368.116 463.518Z" fill="white"/>
<path d="M403.267 494.78L384.59 533.018C381.943 539.178 375.823 543.188 369.026 543.188H345.203C339.105 543.188 335.399 537.09 337.728 531.535L361.678 474.565C363.012 471.098 365.363 468.217 368.306 466.191C371.271 464.165 374.828 463.017 378.576 463.017C383.785 463.017 388.952 466.504 392.383 470.368L400.683 479.201C404.516 483.503 405.511 489.539 403.267 494.78Z" fill="#66B0F0"/>
<path d="M403.267 494.78L384.59 533.017C381.943 539.178 375.823 543.187 369.026 543.187H343.7C341.35 543.187 340.015 541.747 339.232 539.763H344.865C351.662 539.763 357.782 535.753 360.429 529.592L381.964 485.299C383.976 481.164 388.232 478.512 392.891 478.512C398.968 478.512 403.584 482.897 404.431 488.452C404.516 490.582 404.135 492.733 403.267 494.78Z" fill="white"/>
<path d="M369.026 543.814H343.7C341.349 543.814 339.634 542.52 338.639 539.993C338.554 539.805 338.596 539.575 338.702 539.408C338.829 539.241 339.02 539.137 339.232 539.137H344.864C351.408 539.137 357.295 535.294 359.836 529.342C359.836 529.342 359.836 529.321 359.857 529.321L381.392 485.028C383.51 480.684 388.02 477.886 392.891 477.886C399.01 477.886 404.135 482.292 405.067 488.369C405.067 488.39 405.067 488.411 405.067 488.432C405.151 490.687 404.749 492.922 403.86 495.031C403.86 495.031 403.86 495.052 403.838 495.052L385.162 533.268C382.409 539.68 376.077 543.814 369.026 543.814ZM340.227 540.39C341.032 541.872 342.154 542.561 343.7 542.561H369.026C375.569 542.561 381.456 538.719 383.997 532.767C383.997 532.767 383.997 532.746 384.018 532.746L402.695 494.53C403.5 492.608 403.881 490.583 403.796 488.515C402.949 483.086 398.375 479.139 392.891 479.139C388.507 479.139 384.442 481.666 382.536 485.571L361 529.844C358.247 536.255 351.916 540.39 344.864 540.39H340.227Z" fill="#66B0F0"/>
<path d="M398.968 477.364C396.723 476.153 394.013 475.275 391.641 475.275C387.089 475.275 382.875 477.886 380.905 481.937L358.607 527.797C355.77 534.417 349.206 538.698 341.9 538.698H337.792C337.58 538.301 337.432 537.884 337.284 537.445H341.9C348.697 537.445 354.796 533.457 357.443 527.296L357.464 527.275L379.783 481.394C381.964 476.904 386.623 474.022 391.663 474.022C393.272 474.022 395.199 474.545 396.851 475.108L398.968 477.364Z" fill="white"/>
<path d="M320.979 356.867L315.664 425.343L313.292 456.021C313.292 456.021 297.813 473.02 280.194 462.536L272.042 425.364L253.386 340.306C248.346 317.314 264.27 294.948 287.924 291.836L320.979 356.867Z" fill="#A0505A"/>
<path d="M292.116 467.403C288.326 467.403 284.154 466.463 279.877 463.915L279.644 463.769L271.216 424.467L272.232 424.78C292.285 430.711 315.282 424.822 315.515 424.759L316.383 424.529L313.927 457.128L313.779 457.295C313.609 457.463 309.755 461.66 303.636 464.625C300.565 466.087 296.584 467.403 292.116 467.403ZM280.766 462.976C287.796 467.069 295.292 467.236 303.043 463.498C308.294 460.95 311.936 457.358 312.677 456.585L314.964 426.158C313.037 426.597 308.04 427.662 301.581 428.247C294.149 428.936 283.244 429.103 272.868 426.263L280.766 462.976Z" fill="white"/>
<path d="M291.332 444.911C289.278 444.911 287.605 443.262 287.605 441.236C287.605 439.21 289.278 437.561 291.332 437.561C293.386 437.561 295.059 439.21 295.059 441.236C295.059 443.262 293.386 444.911 291.332 444.911ZM291.332 438.814C289.977 438.814 288.876 439.899 288.876 441.236C288.876 442.573 289.977 443.658 291.332 443.658C292.688 443.658 293.789 442.573 293.789 441.236C293.789 439.899 292.688 438.814 291.332 438.814Z" fill="white"/>
<path d="M310.983 440.234C308.929 440.234 307.256 438.584 307.256 436.558C307.256 434.533 308.929 432.883 310.983 432.883C313.037 432.883 314.71 434.533 314.71 436.558C314.71 438.584 313.037 440.234 310.983 440.234ZM310.983 434.136C309.628 434.136 308.527 435.222 308.527 436.558C308.527 437.895 309.628 438.981 310.983 438.981C312.339 438.981 313.44 437.895 313.44 436.558C313.44 435.222 312.339 434.136 310.983 434.136Z" fill="white"/>
<path d="M279.474 436.099C277.42 436.099 275.747 434.449 275.747 432.424C275.747 430.398 277.42 428.748 279.474 428.748C281.528 428.748 283.201 430.398 283.201 432.424C283.201 434.449 281.528 436.099 279.474 436.099ZM279.474 430.001C278.119 430.001 277.018 431.087 277.018 432.424C277.018 433.76 278.119 434.846 279.474 434.846C280.829 434.846 281.93 433.76 281.93 432.424C281.93 431.087 280.829 430.001 279.474 430.001Z" fill="white"/>
<path d="M288.241 461.514C286.187 461.514 284.514 459.864 284.514 457.839C284.514 455.813 286.187 454.163 288.241 454.163C290.295 454.163 291.968 455.813 291.968 457.839C291.968 459.864 290.295 461.514 288.241 461.514ZM288.241 455.416C286.886 455.416 285.785 456.502 285.785 457.839C285.785 459.175 286.886 460.261 288.241 460.261C289.596 460.261 290.697 459.175 290.697 457.839C290.697 456.502 289.596 455.416 288.241 455.416Z" fill="white"/>
<path d="M302.661 455.415C300.607 455.415 298.935 453.766 298.935 451.74C298.935 449.714 300.607 448.064 302.661 448.064C304.715 448.064 306.388 449.714 306.388 451.74C306.388 453.766 304.715 455.415 302.661 455.415ZM302.661 449.317C301.306 449.317 300.205 450.403 300.205 451.74C300.205 453.076 301.306 454.162 302.661 454.162C304.017 454.162 305.118 453.076 305.118 451.74C305.118 450.403 304.017 449.317 302.661 449.317Z" fill="white"/>
<path d="M333.705 463.33L313.292 543.835H306.855C306.558 543.835 306.283 543.815 305.986 543.794C301.116 543.355 297.008 539.304 295.97 534.521L280.173 462.495C297.791 472.999 313.292 456 313.292 456L333.705 463.33Z" fill="#66B0F0"/>
<path d="M334.743 504.638C339.041 482.251 340.227 465.147 332.816 463.769C325.404 462.391 312.212 477.239 307.913 499.626C303.615 522.013 305.859 541.81 313.271 543.189C320.682 544.588 330.444 527.046 334.743 504.638Z" fill="white"/>
<path d="M314.118 543.898C313.8 543.898 313.461 543.877 313.143 543.814C309.29 543.104 306.6 537.967 305.563 529.363C304.567 521.072 305.181 510.464 307.278 499.521C309.268 489.184 313.313 479.556 318.67 472.414C323.583 465.878 328.919 462.411 332.921 463.163C336.775 463.873 338.681 468.175 338.787 476.319C338.872 482.96 337.749 492.253 335.357 504.762C333.663 513.575 331.1 521.866 327.945 528.737C324.832 535.524 321.423 540.285 318.098 542.52C316.743 543.418 315.409 543.898 314.118 543.898ZM331.82 464.311C328.432 464.311 323.879 467.611 319.708 473.166C314.456 480.162 310.496 489.601 308.527 499.75C306.452 510.589 305.838 521.052 306.812 529.217C307.765 537.111 310.158 541.977 313.376 542.582C314.605 542.812 315.96 542.436 317.4 541.475C323.901 537.111 330.783 521.929 334.107 504.533C336.5 492.128 337.601 482.898 337.516 476.34C337.432 468.989 335.801 464.98 332.688 464.395C332.413 464.332 332.117 464.311 331.82 464.311Z" fill="#66B0F0"/>
<path d="M304.948 499.27C302.725 510.881 302.069 522.096 303.127 530.867C303.89 537.173 305.499 541.663 307.701 543.835H306.854C306.558 543.835 306.282 543.814 305.986 543.794C303.996 541.204 302.577 536.86 301.857 531.013C300.777 522.138 301.433 510.777 303.699 499.041C305.838 487.931 310.158 477.51 315.896 469.679C319.327 465.001 322.926 461.722 326.209 460.239L328.114 460.866C320.555 463.079 309.078 477.781 304.948 499.27Z" fill="white"/>
<path d="M287.924 291.815L384.527 282L481.088 308.71L480.262 321.365C478.949 341.33 461.5 356.867 441.214 356.867H321.001L287.924 291.815Z" fill="#FE5244"/>
<path d="M436.957 348.723H316.744C316.384 348.723 316.108 348.451 316.108 348.096C316.108 347.741 316.384 347.47 316.744 347.47H436.957C446.147 347.47 455.782 342.688 463.406 334.313C470.626 326.378 474.946 316.458 474.946 307.792C474.946 307.437 475.222 307.165 475.582 307.165C475.942 307.165 476.217 307.437 476.217 307.792C476.217 316.771 471.77 327.004 464.358 335.17C456.481 343.774 446.507 348.723 436.957 348.723Z" fill="white"/>
<path d="M427.492 338.281H311.874C311.514 338.281 311.238 338.009 311.238 337.654C311.238 337.299 311.514 337.028 311.874 337.028H427.492C435.518 337.028 443.818 333.311 450.828 326.545C457.413 320.196 462.029 312.01 463.491 304.074C463.554 303.74 463.893 303.51 464.232 303.573C464.571 303.635 464.803 303.97 464.74 304.304C461.754 320.363 445.724 338.281 427.492 338.281Z" fill="white"/>
<path d="M417.306 327.631H305.732C305.372 327.631 305.097 327.359 305.097 327.004C305.097 326.649 305.372 326.378 305.732 326.378H417.306C432.553 326.378 445.788 312.845 450.51 300.127C450.637 299.793 450.997 299.626 451.314 299.752C451.653 299.877 451.823 300.232 451.696 300.545C449.07 307.625 444.326 314.286 438.313 319.298C431.769 324.749 424.506 327.631 417.306 327.631Z" fill="white"/>
<path d="M411.801 316.145H300.227C299.867 316.145 299.592 315.873 299.592 315.518C299.592 315.163 299.867 314.892 300.227 314.892H411.801C422.304 314.892 433.315 308.146 440.557 297.308C440.748 297.015 441.15 296.932 441.447 297.12C441.743 297.308 441.828 297.705 441.637 297.997C434.141 309.19 422.728 316.145 411.801 316.145Z" fill="white"/>
<path d="M406.507 305.703H294.933C294.573 305.703 294.298 305.431 294.298 305.076C294.298 304.721 294.573 304.45 294.933 304.45H406.507C414.596 304.45 422.749 300.775 429.462 294.113C429.716 293.862 430.118 293.862 430.351 294.113C430.605 294.363 430.605 294.76 430.351 294.99C423.405 301.902 414.935 305.703 406.507 305.703Z" fill="white"/>
<path d="M400.79 295.052H289.216C288.856 295.052 288.581 294.781 288.581 294.426C288.581 294.071 288.856 293.799 289.216 293.799H400.79C405.554 293.799 410.34 292.463 415.041 289.852C415.337 289.685 415.74 289.79 415.909 290.082C416.079 290.374 415.973 290.771 415.676 290.938C410.785 293.674 405.766 295.052 400.79 295.052Z" fill="white"/>
<path d="M320.768 357.494C320.535 357.494 320.302 357.368 320.196 357.139L287.141 292.087C286.992 291.774 287.12 291.398 287.416 291.252C287.734 291.105 288.115 291.231 288.263 291.523L321.318 356.575C321.466 356.888 321.339 357.264 321.043 357.41C320.958 357.473 320.873 357.494 320.768 357.494Z" fill="white"/>
<path d="M486.381 221.544C477.276 224.091 468.318 223.34 467.365 220.604C466.476 217.993 470.499 213.524 478.652 210.559C479.054 210.413 479.478 210.267 479.901 210.12C482.358 209.306 484.814 208.784 487.122 208.512C493.962 207.656 499.531 208.867 500.23 210.914C501.183 213.65 496.016 218.85 486.381 221.544Z" fill="white"/>
<path d="M475.539 223.736C470.923 223.736 467.429 222.713 466.751 220.812C465.608 217.471 470.626 212.814 478.419 209.974C478.821 209.828 479.245 209.681 479.668 209.535H479.69C482.082 208.742 484.56 208.199 487.037 207.906C494.047 207.029 499.976 208.241 500.823 210.726C501.119 211.54 500.971 212.543 500.42 213.587C498.642 216.928 493.2 220.311 486.55 222.17C482.718 223.214 478.843 223.736 475.539 223.736ZM491.463 208.867C490.171 208.867 488.753 208.951 487.207 209.139C484.814 209.431 482.421 209.953 480.113 210.726C479.69 210.872 479.266 211.018 478.885 211.164C475.2 212.501 472.066 214.276 470.076 216.176C468.403 217.763 467.62 219.35 467.98 220.416C468.678 222.441 476.831 223.569 486.212 220.959C491.4 219.518 497.456 216.489 499.298 213.002C499.679 212.271 499.806 211.624 499.637 211.122C499.256 210.016 496.249 208.867 491.463 208.867Z" fill="#3FB1B5"/>
<path d="M480.621 282.439H477.127L467.958 221.397V221.355L467.725 219.83C468.17 217.053 472.574 213.127 480.346 210.579C484.221 209.305 488.075 208.741 491.357 208.679L494.703 217.721L495.02 218.577L505.608 247.208C511.961 264.312 499.107 282.439 480.621 282.439Z" fill="#A0505A"/>
<path d="M494.914 218.369C492.691 219.747 489.811 221.021 486.381 221.981C478.503 224.174 470.52 223.276 467.958 221.397V221.355L467.725 219.83C468.17 217.053 472.574 213.127 480.346 210.579C484.221 209.305 488.075 208.741 491.357 208.679L494.914 218.369Z" fill="#73325A"/>
<path d="M367.205 232.214L356.088 259.488C350.603 272.958 337.347 281.791 322.609 281.791H173.173V268.301C173.173 265.043 175.206 262.119 178.298 260.971L193.65 255.228C195.048 254.706 196.509 254.434 197.991 254.434H215.419L314.054 244.619L331.079 206.173L367.205 232.214Z" fill="#A0505A"/>
<path d="M173.809 274.002C173.449 274.002 173.173 273.73 173.173 273.375C173.173 270.639 174.846 268.238 177.451 267.256L189.034 262.933C189.351 262.808 189.733 262.975 189.86 263.288C189.987 263.602 189.817 263.978 189.5 264.103L177.917 268.426C175.82 269.219 174.444 271.162 174.444 273.375C174.444 273.73 174.169 274.002 173.809 274.002Z" fill="#73325A"/>
<path d="M173.809 280.893C173.449 280.893 173.173 280.622 173.173 280.267C173.173 277.531 174.846 275.129 177.451 274.148L189.034 269.825C189.351 269.7 189.733 269.867 189.86 270.18C189.987 270.493 189.817 270.869 189.5 270.995L177.917 275.317C175.82 276.111 174.444 278.053 174.444 280.267C174.444 280.622 174.169 280.893 173.809 280.893Z" fill="#73325A"/>
<path d="M177.683 281.792C177.429 281.792 177.175 281.625 177.091 281.374C176.963 281.04 177.133 280.685 177.472 280.581L189.055 276.466C189.394 276.341 189.754 276.508 189.859 276.842C189.986 277.176 189.817 277.531 189.478 277.636L177.895 281.75C177.832 281.771 177.747 281.792 177.683 281.792Z" fill="#73325A"/>
<path d="M188.06 257.546C188.06 257.546 198.901 230.251 202.374 230.711C205.847 231.17 192.761 255.792 192.761 255.792L188.06 257.546Z" fill="#FE5244"/>
<path d="M331.079 206.194L328.581 211.812L360.577 248.462L367.205 232.215L331.079 206.194Z" fill="#73325A"/>
<path d="M467.958 221.417L481.087 308.71L384.548 282L367.205 232.193L322.44 199.928L338.152 181.468C352.17 164.991 372.859 155.468 394.67 155.468H425.692C452.67 155.468 477.509 170.003 490.447 193.35L500.505 210.516C500.505 210.516 497.477 206.131 481.151 210.537C466.773 214.442 467.958 221.417 467.958 221.417Z" fill="#3FB1B5"/>
<path d="M367.205 232.423C367.163 232.423 367.099 232.423 367.057 232.402C366.718 232.318 366.506 231.984 366.591 231.65L371.61 210.182C371.694 209.848 372.033 209.639 372.372 209.723C372.711 209.806 372.922 210.14 372.838 210.474L367.819 231.942C367.756 232.235 367.502 232.423 367.205 232.423Z" fill="white"/>
<path d="M478.652 288.954C478.355 288.954 478.08 288.746 478.017 288.432L461.69 188.338C461.627 188.004 461.86 187.67 462.22 187.628C462.558 187.566 462.897 187.796 462.939 188.151L479.266 288.244C479.329 288.579 479.097 288.913 478.737 288.954C478.715 288.954 478.694 288.954 478.652 288.954Z" fill="white"/>
<path d="M480.876 309.336C480.812 309.336 480.77 309.336 480.706 309.315L384.357 282.209C384.019 282.104 383.828 281.77 383.913 281.436C384.018 281.102 384.357 280.914 384.696 280.997L481.045 308.104C481.384 308.208 481.574 308.542 481.49 308.877C481.405 309.148 481.151 309.336 480.876 309.336Z" fill="white"/>
<path d="M389.735 141.517V155.551L414.85 155.342V130.574L389.735 141.517Z" fill="#A0505A"/>
<path d="M416.883 126.252V126.628C416.883 130.387 414.003 133.436 410.191 133.436H408.709C407.756 137.153 399.286 141.497 393.272 141.497H386.263C378.597 141.497 372.732 134.71 373.981 127.233L374.32 125.208L372.245 124.059C371.059 123.391 370.72 121.866 371.546 120.781L376.035 114.933L377.009 109.169C377.793 104.429 380.948 100.565 385.14 98.665C386.792 117.022 403.224 119.193 407.565 119.444H409.979C413.791 119.444 416.883 122.493 416.883 126.252Z" fill="#A0505A"/>
<path d="M405.766 128.675C405.406 128.675 405.13 128.403 405.13 128.048C405.13 124.749 407.862 122.055 411.208 122.055C411.568 122.055 411.843 122.326 411.843 122.681C411.843 123.036 411.568 123.308 411.208 123.308C408.561 123.308 406.401 125.438 406.401 128.048C406.401 128.403 406.126 128.675 405.766 128.675Z" fill="#73325A"/>
<path d="M382.811 119.632C383.408 119.632 383.891 118.528 383.891 117.167C383.891 115.806 383.408 114.703 382.811 114.703C382.215 114.703 381.731 115.806 381.731 117.167C381.731 118.528 382.215 119.632 382.811 119.632Z" fill="#73325A"/>
<path d="M387.216 114.057C387.025 114.057 386.834 113.973 386.707 113.806C383.891 109.963 381.265 110.172 381.223 110.172C380.863 110.214 380.566 109.963 380.524 109.608C380.482 109.274 380.736 108.961 381.096 108.919C381.223 108.898 384.484 108.648 387.724 113.054C387.936 113.326 387.872 113.722 387.576 113.931C387.47 114.015 387.343 114.057 387.216 114.057Z" fill="#73325A"/>
<path d="M407.566 119.444H409.98C413.791 119.444 416.883 122.493 416.883 126.252V126.628C416.883 130.387 414.003 133.436 410.191 133.436L408.561 134.563C401.7 138.907 392.213 155.99 394.543 168.081C397.168 181.676 409.175 184.704 420.271 182.616C431.367 180.528 439.456 174.158 436.83 160.542C436.534 158.934 436.047 157.326 435.433 155.739C435.623 155.802 435.793 155.864 435.983 155.927C449.324 159.519 464.994 159.937 469.314 149.662C473.633 139.388 472.659 129.217 459.679 123.913C452.14 120.822 441.891 120.843 433.95 122.973C437.953 109.253 430.838 93.9871 417.772 92.4626C397.253 90.061 385.479 98.4144 385.162 98.6441C385.141 101.067 386.813 118.254 407.566 119.444Z" fill="#73325A"/>
<path d="M435.983 156.575C435.687 156.575 435.411 156.366 435.369 156.073C433.124 144.483 423.511 138.093 423.405 138.03C423.235 137.926 423.129 137.717 423.129 137.508C423.129 137.299 423.235 137.111 423.405 136.986C429.969 132.412 432.807 125.813 433.908 122.305C434.014 121.971 434.374 121.783 434.691 121.887C435.03 121.992 435.221 122.347 435.115 122.66C434.014 126.21 431.219 132.726 424.845 137.487C427.238 139.262 434.628 145.485 436.618 155.823C436.682 156.157 436.449 156.491 436.11 156.554C436.068 156.575 436.025 156.575 435.983 156.575Z" fill="white"/>
<path d="M440.24 122.66H434.628C434.268 122.66 433.993 122.388 433.993 122.033V116.499C433.993 113.262 436.661 110.631 439.944 110.631H440.24C443.522 110.631 446.19 113.262 446.19 116.499V116.791C446.212 118.337 445.597 119.82 444.475 120.926C443.353 122.033 441.849 122.66 440.24 122.66ZM435.264 121.407H440.24C441.511 121.407 442.675 120.926 443.565 120.028C444.433 119.151 444.92 118.003 444.92 116.791V116.499C444.92 113.951 442.823 111.884 440.24 111.884H439.944C437.36 111.884 435.264 113.951 435.264 116.499V121.407Z" fill="#FE5244"/>
<path d="M443.374 131.139C441.108 131.139 438.927 130.053 437.635 128.048L434.035 122.409C433.845 122.117 433.929 121.72 434.226 121.553L439.943 118.003C441.468 117.063 443.289 116.75 445.047 117.147C446.804 117.543 448.308 118.588 449.282 120.091L449.621 120.613C450.595 122.117 450.891 123.913 450.489 125.646C450.087 127.38 449.028 128.862 447.503 129.823L446.974 130.157C445.873 130.804 444.623 131.139 443.374 131.139ZM435.454 122.263L438.715 127.38C440.325 129.886 443.734 130.637 446.317 129.05L446.847 128.716C448.096 127.943 448.943 126.753 449.261 125.333C449.578 123.913 449.324 122.472 448.541 121.24L448.202 120.718C447.418 119.486 446.211 118.65 444.771 118.337C443.331 118.024 441.87 118.274 440.621 119.047L435.454 122.263Z" fill="#FE5244"/>
<path d="M408.688 147.845C408.54 147.845 408.391 147.845 408.243 147.824C406.655 147.699 405.215 146.989 404.177 145.798L403.987 145.569C402.949 144.399 402.441 142.896 402.547 141.35C402.653 139.784 403.373 138.343 404.58 137.32L408.561 133.561C408.688 133.435 408.857 133.373 409.027 133.394C409.196 133.394 409.365 133.477 409.471 133.602L413.389 137.967C414.426 139.157 414.956 140.682 414.829 142.248C414.702 143.814 413.982 145.234 412.775 146.258L412.521 146.446C411.483 147.344 410.128 147.845 408.688 147.845ZM408.984 134.897L405.469 138.218L405.448 138.239C404.495 139.053 403.923 140.181 403.839 141.434C403.754 142.666 404.156 143.835 404.961 144.754C404.961 144.754 404.961 144.775 404.982 144.775L405.173 145.005C405.977 145.924 407.1 146.487 408.349 146.592C409.598 146.675 410.805 146.279 411.758 145.485L412.012 145.276C412.944 144.483 413.516 143.376 413.622 142.144C413.706 140.912 413.304 139.721 412.499 138.782L408.984 134.897Z" fill="#FE5244"/>
<path d="M416.798 145.548C413.834 145.548 411.102 143.606 410.255 140.661L408.455 134.25C408.37 133.916 408.561 133.582 408.9 133.477L415.401 131.702C417.137 131.222 418.958 131.452 420.525 132.308C422.092 133.185 423.236 134.605 423.723 136.317L423.892 136.923C424.379 138.635 424.146 140.431 423.278 141.977C422.389 143.522 420.949 144.65 419.212 145.13L418.598 145.297C417.984 145.485 417.391 145.548 416.798 145.548ZM411.483 140.327C412.309 143.188 415.337 144.9 418.238 144.107L418.852 143.94C420.271 143.543 421.436 142.645 422.156 141.392C422.876 140.139 423.045 138.677 422.664 137.278L422.494 136.672C422.092 135.273 421.182 134.125 419.911 133.415C418.641 132.704 417.158 132.537 415.739 132.913L409.853 134.521L411.483 140.327Z" fill="#FE5244"/>
<path d="M316.193 543.814C316.15 543.814 316.108 543.814 316.066 543.794C315.727 543.731 315.494 543.397 315.579 543.042L352.466 372.78C352.53 372.446 352.869 372.216 353.229 372.299C353.568 372.362 353.8 372.696 353.716 373.051L316.807 543.313C316.743 543.606 316.489 543.814 316.193 543.814Z" fill="#FFCF2D"/>
<path d="M484.369 543.815C484.073 543.815 483.818 543.606 483.755 543.314L446.867 373.052C446.804 372.718 447.015 372.384 447.354 372.3C447.693 372.237 448.032 372.446 448.117 372.78L485.004 543.042C485.068 543.377 484.856 543.711 484.517 543.794C484.454 543.815 484.411 543.815 484.369 543.815Z" fill="#FFCF2D"/>
<path d="M475.687 506.016H324.367C324.007 506.016 323.731 505.744 323.731 505.389C323.731 505.034 324.007 504.763 324.367 504.763H475.687C476.047 504.763 476.322 505.034 476.322 505.389C476.322 505.744 476.047 506.016 475.687 506.016Z" fill="#FFCF2D"/>
<path d="M476.512 372.927H324.027C322.1 372.927 320.533 371.381 320.533 369.481V360.313C320.533 358.413 322.1 356.867 324.027 356.867H476.512C478.439 356.867 480.006 358.413 480.006 360.313V369.481C480.006 371.381 478.439 372.927 476.512 372.927Z" fill="white"/>
<path d="M476.512 373.553H324.027C321.74 373.553 319.898 371.736 319.898 369.48V360.313C319.898 358.057 321.74 356.24 324.027 356.24H476.512C478.799 356.24 480.642 358.057 480.642 360.313V369.48C480.642 371.736 478.799 373.553 476.512 373.553ZM324.027 357.493C322.46 357.493 321.168 358.767 321.168 360.313V369.48C321.168 371.026 322.46 372.3 324.027 372.3H476.512C478.079 372.3 479.371 371.026 479.371 369.48V360.313C479.371 358.767 478.079 357.493 476.512 357.493H324.027Z" fill="#66B0F0"/>
</svg>
